/* XPM */
static char *result[] = {
/* columns rows colors chars-per-pixel */
"32 32 10 1 ",
"  c #25131A",
". c #3D253B",
"X c #523B40",
"o c #5C6B53",
"O c #56587B",
"+ c #8A961F",
"@ c #BBC44E",
"# c #5880CC",
"$ c #62ABD4",
"% c None",
/* pixels */
"%%%%%%%%%%%%%%%%%%%%%%%%%%%%%%%%",
"                                ",
"++$$@@@$$$$$$$$$@@@@$$$$@@@$@@$+",
"++$@@@@$$$@@@@$$@@@@@$$$@@@@@@++",
"+.$@@@$$$@@@@@@$$@@@@$$$@@@@$$++",
"..$$$$$$@@@@@@@$$$$$$$@@$@@@$$$+",
".$$$$@@$@@@@@@$$$$$$$@@@$$$$$$..",
"o####@@##@@@@########@@#######.o",
"oo$$$$$$$$$$$$$$$$$$$$$$$$$$$$oo",
"oo############################oo",
"oo###################OO#######oo",
"ooOO##OOO#OO###OOOO###OO####O#oo",
"o.OO###OOO#OO###OOOO##OOO###OO.o",
".OOOO##OOOO#OO###OOOOOOOOO###O..",
".OOOOOO##OOOOOO##OOOOOO##OO##O..",
"..OOOOO##OOOOOOOOOOOOOO##OOOOO..",
"..OOOOOOOOOOOOOOOOOOOOOOOOOOOOO.",
".OOOOOOOOOOOOOOOOOOOOOOOOOOOOOO.",
"..OOOOOOOOOOOOOOOOOOOOOOOOOOOO..",
"X..OOOO..OOOOOOOOOOOOOO..OOOO..X",
"X...OO...OOOOOOOOOOOOOO...OOO..X",
".....O..OOOOOOOOOOOOOOO...OO....",
".....OOOOOOOOOOOOOOOOOOO...O....",
"......OOOOOOOOOO....OOOO...O....",
"......O..OOOOO......OOOOO.......",
".........OOO.......OO...O.......",
".......OOO.........O....O.......",
".............XX....O...O........",
"X............XX.....OO.........X",
"XX............................XX",
"XXX...........................XX",
"XXX...........................XX"
};
